# xmcd CD database file
#
# Track frame offsets:
#	150
#	10407
#	27260
#	47792
#	59742
#	81875
#	96065
#	111387
#	122690
#	141807
#
# Disc length: 2088 seconds
#
# Revision: 0
# Processed by: cddbd v1.5.1PL2 Copyright (c) Steve Scherf et al.
# Submitted via: CDex 1.51
#
DISCID=8908260a
DTITLE=Count Basie and His Orchstra - BASIE LAND
DYEAR=2004
DGENRE=Jazz
TTITLE0=Basie Land
TTITLE1=Big Brother
TTITLE2=Count Me In
TTITLE3=Wanderlust
TTITLE4=Instant Blues
TTITLE5=Rabble Rouser
TTITLE6=Sassy
TTITLE7=Gymnastics
TTITLE8=Yuriko
TTITLE9=Doodle-Oodle
EXTD=YEAR: 2004
EXTT0=
EXTT1=
EXTT2=
EXTT3=
EXTT4=
EXTT5=
EXTT6=
EXTT7=
EXTT8=
EXTT9=
PLAYORDER=
